<svg xmlns="http://www.w3.org/2000/svg" width="256" height="256"><path fill-opacity=".016" d="M0 128.004v128.004l128.25-.254 128.25-.254.254-127.75L257.008 0H0v128.004m.485.496c0 70.4.119 99.053.265 63.672.146-35.38.146-92.98 0-128C.604 29.153.485 58.1.485 128.5" fill="#1976D2" fill-rule="evenodd"/><path fill-opacity=".275" d="M3.338 23.25c1.93 3.438 30.537 53.05 63.57 110.25s60.231 104.45 60.439 105c.209.55.581.775.828.5s23.661-40.775 52.032-90c28.37-49.225 57.167-99.175 63.993-111l12.41-21.5-49.732.268-49.732.268L142.823 42C134.945 55.73 128.275 66.964 128 66.964c-.275 0-6.95-11.242-14.833-24.982L98.833 17H-.172l3.51 6.25" fill="#1976D2" fill-rule="evenodd"/><path fill-opacity=".148" d="M1.359 18.493c.315.821 22.461 39.408 49.214 85.75 26.752 46.341 55.005 95.377 62.784 108.969 7.779 13.591 14.368 24.709 14.643 24.705.582-.008 127-219.246 127-220.247 0-.368-21.951-.67-48.779-.67h-48.779L143.08 42c-7.899 13.75-14.685 25-15.08 25-.395 0-7.181-11.25-15.08-25L98.558 17H49.672c-42.937 0-48.816.182-48.313 1.493" fill="#1976D2" fill-rule="evenodd"/><path fill-opacity=".568" d="M52.45 18.731C53.779 22.194 127.327 149 128.007 149c.665 0 74.284-126.989 75.586-130.382.582-1.516-1.326-1.633-22.676-1.387l-23.312.269-14.553 25.243C135.049 56.627 128.275 67.986 128 67.986c-.275 0-7.049-11.359-15.052-25.243L98.395 17.5l-23.312-.269c-21.945-.253-23.272-.165-22.633 1.5" fill="#1976D2" fill-rule="evenodd"/></svg>